<svg xmlns="http://www.w3.org/2000/svg" xmlns:xlink="http://www.w3.org/1999/xlink" width="340" height="340"
  viewBox="0 0 340 340">
  <defs>
    <style>
      .a {
        clip-path: url(#b);
      }

      .b {
        fill: #6b6f72;
      }
    </style>
    <clipPath id="b">
      <rect width="340" height="340" />
    </clipPath>
  </defs>
  <g id="a" class="a">
    <g transform="translate(-12 -11)">
      <path class="b"
        d="M235.356,32.486a6.657,6.657,0,0,1-1.883,2.508,6.266,6.266,0,0,1-2.459,1.213,7.5,7.5,0,0,1-2.71.12,9.376,9.376,0,0,1-2.683-.781l-5.218-2.4.29-.63a6.231,6.231,0,0,0,.693.259,2.383,2.383,0,0,0,.6.141.84.84,0,0,0,.543-.165,1.272,1.272,0,0,0,.371-.491l4.174-9.086a1.513,1.513,0,0,0,.148-.588.842.842,0,0,0-.229-.568,2.664,2.664,0,0,0-.505-.468,5.314,5.314,0,0,0-.513-.333l.289-.629,5.5,2.527a8.066,8.066,0,0,1,2.075,1.378,7.317,7.317,0,0,1,1.483,1.826,5.987,5.987,0,0,1,.788,2.866,7.38,7.38,0,0,1-.752,3.3m-2.171-1a8.019,8.019,0,0,0,.715-2.447,5.781,5.781,0,0,0-.164-2.238,4.746,4.746,0,0,0-.978-1.836,5.087,5.087,0,0,0-1.792-1.328q-.363-.168-.827-.364c-.309-.131-.537-.228-.689-.29l-4.444,9.673a1.364,1.364,0,0,0-.044,1.334,2.943,2.943,0,0,0,1.3.975,5,5,0,0,0,2.153.506,3.9,3.9,0,0,0,1.875-.481,5.42,5.42,0,0,0,1.6-1.355,10.021,10.021,0,0,0,1.294-2.149m4.471,10.21-4.071-2.244.312-.564c.136.06.279.123.424.189a1.692,1.692,0,0,0,.4.132.71.71,0,0,0,.5-.073,1.1,1.1,0,0,0,.39-.437l2.867-5.2a1.162,1.162,0,0,0,.152-.567,1.26,1.26,0,0,0-.137-.571,1.8,1.8,0,0,0-.374-.434,4,4,0,0,0-.515-.4l.311-.564L241,32.406l.054.187-3.79,6.876a1.107,1.107,0,0,0-.158.559.773.773,0,0,0,.2.489,3.137,3.137,0,0,0,.3.326,2.425,2.425,0,0,0,.363.284Zm5.468-12.453a1.414,1.414,0,0,1-.79.674,1.167,1.167,0,0,1-1.557-.835,1.288,1.288,0,0,1,.116-.968,1.335,1.335,0,0,1,.773-.644,1.136,1.136,0,0,1,.95.066,1.2,1.2,0,0,1,.618.77,1.227,1.227,0,0,1-.11.937m2.671,16.238a2.867,2.867,0,0,1,.083,1.039,2.684,2.684,0,0,1-.418,1.107,2.849,2.849,0,0,1-2.278,1.372,5.079,5.079,0,0,1-1.7-.213,8.5,8.5,0,0,1-2.046-.961,6.581,6.581,0,0,1-2.451-2.261,2.049,2.049,0,0,1,.058-2.161,1.85,1.85,0,0,1,1.49-.928,3.51,3.51,0,0,1,2.024.512l.072-.117a5.8,5.8,0,0,1-.4-.5,2.307,2.307,0,0,1-.3-.543,1.692,1.692,0,0,1-.1-.627,1.406,1.406,0,0,1,.229-.669,1.446,1.446,0,0,1,.811-.618,2.879,2.879,0,0,1,1.335-.055l.076-.125A3.779,3.779,0,0,1,241.637,38a2.59,2.59,0,0,1,.4-1.631,2.836,2.836,0,0,1,2.047-1.377,3.856,3.856,0,0,1,2.686.621,4.319,4.319,0,0,1,.7.533q.324.3.635.656l2.861,1.761-.492.8-1.93-1.188-.03.05a2.879,2.879,0,0,1-.028,1.072,3.113,3.113,0,0,1-.373.94,2.723,2.723,0,0,1-2,1.289,3.577,3.577,0,0,1-2.5-.509l-1.007-.62a1.51,1.51,0,0,0-.548-.005.694.694,0,0,0-.5.346.718.718,0,0,0-.114.578,1.085,1.085,0,0,0,.288.482,3.19,3.19,0,0,0,.51.428c.207.142.421.287.646.432s.564.379.971.667.7.49.871.606a2.529,2.529,0,0,1,.656.657,2.888,2.888,0,0,1,.422.889m-1.889,1.614a1.489,1.489,0,0,0,.256-.9,1.286,1.286,0,0,0-.406-.812c-.142-.117-.445-.339-.91-.663s-1.017-.684-1.655-1.076a2.7,2.7,0,0,0-1.636-.2,1.771,1.771,0,0,0-1.032.827,1.448,1.448,0,0,0-.087,1.392,2.815,2.815,0,0,0,.563.834,5.31,5.31,0,0,0,1.112.875,4.023,4.023,0,0,0,2.215.715,1.875,1.875,0,0,0,1.58-.992m2.64-7.861a3.174,3.174,0,0,0,.56-1.794,1.492,1.492,0,0,0-.754-1.261,1.55,1.55,0,0,0-.77-.25,1.46,1.46,0,0,0-.736.182,2.249,2.249,0,0,0-.645.515,5.293,5.293,0,0,0-.56.751,3.045,3.045,0,0,0-.524,1.753,1.431,1.431,0,0,0,.686,1.225,1.462,1.462,0,0,0,1.457.1,3.018,3.018,0,0,0,1.286-1.222m4.139,10.9-3.8-2.672.37-.528c.13.077.265.155.4.235a1.8,1.8,0,0,0,.384.176.717.717,0,0,0,.508-.018,1.1,1.1,0,0,0,.437-.393l3.414-4.861a1.162,1.162,0,0,0,.211-.549,1.247,1.247,0,0,0-.075-.582,1.779,1.779,0,0,0-.324-.472,3.783,3.783,0,0,0-.469-.454l.37-.528,2.906,1.778.033.19-4.512,6.426a1.111,1.111,0,0,0-.219.538.783.783,0,0,0,.147.509,3.323,3.323,0,0,0,.261.355,2.536,2.536,0,0,0,.33.322Zm6.784-11.787a1.419,1.419,0,0,1-.858.585,1.162,1.162,0,0,1-.977-.179,1.141,1.141,0,0,1-.481-.821,1.3,1.3,0,0,1,.22-.95,1.338,1.338,0,0,1,.838-.557,1.134,1.134,0,0,1,.937.17,1.2,1.2,0,0,1,.532.832,1.233,1.233,0,0,1-.211.92m-1.3,15.406c-.443-.115-.853-.238-1.227-.371a4.646,4.646,0,0,1-1.214-.694,2.078,2.078,0,0,1-.99-1.515,2.68,2.68,0,0,1,.648-1.671l3.937-5.2-1.385-1.05.566-.747,1.417,1.072,1.81-2.391,1.416,1.074-1.81,2.389,2.2,1.669-.565.747L258.79,45.41l-3.248,4.29a9.577,9.577,0,0,0-.575.833,1.862,1.862,0,0,0-.26.691,1.01,1.01,0,0,0,.114.626,2.008,2.008,0,0,0,.581.623c.129.1.33.231.6.4a3.09,3.09,0,0,0,.6.314Zm7.442,6.65c-.3-.115-.566-.221-.786-.32a2.73,2.73,0,0,1-.664-.434,1.908,1.908,0,0,1-.691-1.06,1.643,1.643,0,0,1,.234-1.168l-.045-.039a4.746,4.746,0,0,1-1.733-.069,3.841,3.841,0,0,1-1.574-.858,2.48,2.48,0,0,1-.921-1.663,2.29,2.29,0,0,1,.6-1.776,2.949,2.949,0,0,1,.767-.654,2.474,2.474,0,0,1,1.7-.275,5.69,5.69,0,0,1,.809.212q.443.159,1.754.69a13.4,13.4,0,0,0,1.834.645l.628-.735a4.067,4.067,0,0,0,.277-.406,2.033,2.033,0,0,0,.27-.668,1.944,1.944,0,0,0-.009-.838,1.655,1.655,0,0,0-.594-.861,2.293,2.293,0,0,0-.733-.428,1.49,1.49,0,0,0-.618-.111,2.62,2.62,0,0,0-.3.5,3.088,3.088,0,0,1-.386.6.846.846,0,0,1-.641.274,1.221,1.221,0,0,1-.834-.34.8.8,0,0,1-.319-.73,1.37,1.37,0,0,1,1.13-1.186,3.19,3.19,0,0,1,1.1-.019,4.386,4.386,0,0,1,1.111.339,4.157,4.157,0,0,1,1.051.649,7.861,7.861,0,0,1,1.014,1.015,2.635,2.635,0,0,1,.527,1.088,2.25,2.25,0,0,1-.062,1.239,4.225,4.225,0,0,1-.842,1.381q-.907,1.061-1.632,1.861t-1.555,1.773a1.18,1.18,0,0,0-.293.545,1.064,1.064,0,0,0,.059.554,1,1,0,0,0,.289.376c.155.142.32.285.488.43Zm.764-6.134q-.789-.353-1.417-.581a5.856,5.856,0,0,0-1.265-.31,2.657,2.657,0,0,0-1.1.1,2.013,2.013,0,0,0-.919.638,1.526,1.526,0,0,0-.453,1.183,1.554,1.554,0,0,0,.571.992,2.211,2.211,0,0,0,1.148.537,3.523,3.523,0,0,0,1.193-.028Zm3.076,10.149-3.38-3.26.448-.465q.174.143.375.3a2.231,2.231,0,0,0,.353.238.725.725,0,0,0,.508.064,1.067,1.067,0,0,0,.5-.317L274,52.949a1.49,1.49,0,0,0,.349-.579,1.275,1.275,0,0,0,.051-.624,2.037,2.037,0,0,0-.314-.6,5.827,5.827,0,0,0-.46-.607l.434-.449,2.756,2.362,0,.2-9.173,9.509a1.094,1.094,0,0,0-.3.492.8.8,0,0,0,.06.527,2.25,2.25,0,0,0,.2.4,3.178,3.178,0,0,0,.293.377Zm9.015,16.43-.762-.98,15.02-11.658.761.978Zm24.6,21.255c-.091-.129-.218-.3-.379-.511a2.365,2.365,0,0,0-.461-.479.861.861,0,0,0-.561-.17,1.51,1.51,0,0,0-.613.19l-.948.507q-1.033.554-1.387.76t-.578.348a14.745,14.745,0,0,1-2.014-1.857,10.766,10.766,0,0,1-1.469-2.083,6.731,6.731,0,0,1-.768-2.491,6.4,6.4,0,0,1,.234-2.562,6.812,6.812,0,0,1,1.3-2.366,7.707,7.707,0,0,1,2.36-1.884,8.079,8.079,0,0,1,2.836-.926,6.98,6.98,0,0,1,2.771.195,6.518,6.518,0,0,1,2.383,1.233,6.992,6.992,0,0,1,1.775,2.168,6.628,6.628,0,0,1,.715,1.932,7.5,7.5,0,0,1,.121,1.675l.774.039.368.689L303.3,98.875l-.378-.706a13.667,13.667,0,0,0,1.15-1.194,5.483,5.483,0,0,0,.858-1.345,3.6,3.6,0,0,0,.313-1.494,3.46,3.46,0,0,0-.454-1.624,4.007,4.007,0,0,0-1.256-1.447,4.078,4.078,0,0,0-1.79-.66,5.959,5.959,0,0,0-2.217.145,10.473,10.473,0,0,0-2.539.993A9.409,9.409,0,0,0,294.943,93a6.29,6.29,0,0,0-1.343,1.768,4.416,4.416,0,0,0-.491,1.981,4.228,4.228,0,0,0,.536,2.055,4.451,4.451,0,0,0,.972,1.258,2.862,2.862,0,0,0,.964.622,7.03,7.03,0,0,0,.943-.412c.306-.159.565-.295.777-.41l.672-.359a2.2,2.2,0,0,0,.589-.442.783.783,0,0,0,.19-.628,3.175,3.175,0,0,0-.22-.874c-.131-.348-.238-.617-.326-.807l.629-.336,2.867,5.354Zm.893,10.443a4.939,4.939,0,0,1-2.327-.764,4.067,4.067,0,0,1-1.55-1.874,4.736,4.736,0,0,1-.428-2.032,4,4,0,0,1,.453-1.763,4.747,4.747,0,0,1,1.173-1.425A6.955,6.955,0,0,1,301,103.65a5.86,5.86,0,0,1,1.809-.454,5.2,5.2,0,0,1,1.84.16,4.288,4.288,0,0,1,1.573.827,4,4,0,0,1,1.121,1.534,4.433,4.433,0,0,1,.409,1.79,3.223,3.223,0,0,1-.352,1.48,3.626,3.626,0,0,1-.919,1.124,5.694,5.694,0,0,1-1.394.839l-.592.255-2.52-5.858a7.607,7.607,0,0,0-1.511.846,4.144,4.144,0,0,0-1.024,1.063,2.713,2.713,0,0,0-.429,1.268,3.082,3.082,0,0,0,.277,1.476,2.714,2.714,0,0,0,.967,1.216,4.022,4.022,0,0,0,1.829.537Zm2.52-3.434a7.794,7.794,0,0,0,1.036-.547,3.546,3.546,0,0,0,.839-.685,1.975,1.975,0,0,0,.429-.854,1.675,1.675,0,0,0-.139-1.035,2.086,2.086,0,0,0-1.455-1.229,3.962,3.962,0,0,0-2.469.259Zm-.62,15.068-1.3-3.115.081-.183.849-.293-.007-.08a4.043,4.043,0,0,1-1.286-.881,3.49,3.49,0,0,1-.843-1.334,3.628,3.628,0,0,1-.17-1.618,3.984,3.984,0,0,1,.539-1.594,5.083,5.083,0,0,1,1.234-1.392,6.2,6.2,0,0,1,1.866-1,5.46,5.46,0,0,1,1.991-.305,5.207,5.207,0,0,1,1.876.4,4.377,4.377,0,0,1,1.464,1.037,4.234,4.234,0,0,1,.944,1.536,5.171,5.171,0,0,1,.269,1.305,4.762,4.762,0,0,1-.046,1.2l3.172-1.1a1.931,1.931,0,0,0,.663-.374,1.15,1.15,0,0,0,.362-.527,1.914,1.914,0,0,0,.013-.785,9.749,9.749,0,0,0-.211-.985l.573-.2,1.49,3.658-.091.188-12.269,4.236a1.205,1.205,0,0,0-.505.314,1.14,1.14,0,0,0-.257.5,1.2,1.2,0,0,0,.037.556q.087.34.174.622Zm.444-3.893,5.326-1.839a2.576,2.576,0,0,0,.434-.418,2.42,2.42,0,0,0,.364-.59,2.513,2.513,0,0,0,.168-.759,2.279,2.279,0,0,0-.138-.891,2.015,2.015,0,0,0-.638-.919,2.861,2.861,0,0,0-1.106-.54,4.451,4.451,0,0,0-1.5-.086,7.781,7.781,0,0,0-1.836.412,6.582,6.582,0,0,0-1.358.634,3.955,3.955,0,0,0-1,.9,2.7,2.7,0,0,0-.546,1.112,2.328,2.328,0,0,0,.1,1.3,2.28,2.28,0,0,0,.744,1.109,4.219,4.219,0,0,0,.994.57m9.649,9.706a1.616,1.616,0,0,1-.917,0,.831.831,0,0,1-.572-.622,1.137,1.137,0,0,1,.05-.88.854.854,0,0,1,.525-.444,2.067,2.067,0,0,1,.385-.073c.119-.007.238-.019.355-.032a2.159,2.159,0,0,0-.644-.935,3.177,3.177,0,0,0-1.295-.726l-5.4,1.5a1.045,1.045,0,0,0-.5.276.8.8,0,0,0-.2.486,2.541,2.541,0,0,0,.027.646c.038.256.075.477.113.662l-.621.173-1.357-4.893.621-.172c.052.141.107.286.162.436a1.74,1.74,0,0,0,.185.379.713.713,0,0,0,.4.309,1.1,1.1,0,0,0,.586-.025l5.725-1.588a1.358,1.358,0,0,0,.535-.3,1.2,1.2,0,0,0,.346-.506,1.378,1.378,0,0,0,.047-.469,3.775,3.775,0,0,0-.077-.547l.622-.172,1.063,3.03-.1.168-1.308.363.012.047a4.4,4.4,0,0,1,1.519.977,2.863,2.863,0,0,1,.757,1.2,1.334,1.334,0,0,1-.118,1.072,1.482,1.482,0,0,1-.932.658m-5.642,13.348L307.5,140.3l.105-.171,1.2-.237-.011-.057c-.189-.122-.394-.26-.614-.416a3.561,3.561,0,0,1-.625-.563,4.266,4.266,0,0,1-.558-.753,3.916,3.916,0,0,1-.359-1.112,2.343,2.343,0,0,1,.44-2.07,3.8,3.8,0,0,1,2.247-1.125l4.517-.9a1.2,1.2,0,0,0,.555-.245,1.242,1.242,0,0,0,.331-.461,1.261,1.261,0,0,0,.08-.468,4.108,4.108,0,0,0-.036-.564l.632-.125.855,3.106-.107.17-6.561,1.3a2.3,2.3,0,0,0-1.451.766,1.449,1.449,0,0,0-.3,1.2,2.567,2.567,0,0,0,.349.907,2.763,2.763,0,0,0,.518.613,3.236,3.236,0,0,0,.517.371,2.505,2.505,0,0,0,.474.219l5.349-1.059a1.165,1.165,0,0,0,.534-.245,1.276,1.276,0,0,0,.342-.457,1.1,1.1,0,0,0,.037-.54c-.028-.229-.064-.486-.107-.769l.632-.125.911,3.393-.107.17-7.49,1.484a1.089,1.089,0,0,0-.529.245,1.226,1.226,0,0,0-.319.451,1.082,1.082,0,0,0-.057.44c.01.163.03.341.061.535Zm.2,5.039a4.067,4.067,0,0,1,.94-3.426,5.553,5.553,0,0,1,3.532-1.664,5.614,5.614,0,0,1,1.925.063,5.184,5.184,0,0,1,1.714.7,4.335,4.335,0,0,1,1.972,3.106,3.7,3.7,0,0,1-.367,2.374,2.21,2.21,0,0,1-1.718,1.126,1.606,1.606,0,0,1-.887-.118.843.843,0,0,1-.476-.715,1.282,1.282,0,0,1,.172-.925.871.871,0,0,1,.605-.4,3.624,3.624,0,0,1,.908,0,5.044,5.044,0,0,0,.69.046.87.87,0,0,0,.33-.571,2.625,2.625,0,0,0,0-.752,2.063,2.063,0,0,0-.317-.857,2.306,2.306,0,0,0-.839-.718,3.957,3.957,0,0,0-1.385-.4,7.7,7.7,0,0,0-1.995.04,5.064,5.064,0,0,0-2.831,1.19,2.473,2.473,0,0,0-.858,2.245,2.632,2.632,0,0,0,.668,1.509,4.5,4.5,0,0,0,1.528.991l-.324.673a5.055,5.055,0,0,1-2.035-1.443,3.994,3.994,0,0,1-.955-2.069m1.4,14.431-.166-2.9,2.266-1.765q1.206-.94,2.341-1.945l-.79-.758-2.284.13a1.218,1.218,0,0,0-.572.16.751.751,0,0,0-.312.429,2.569,2.569,0,0,0-.121.457,3.172,3.172,0,0,0-.041.5l-.643.036-.269-4.709.644-.036c.021.147.045.3.07.462a2.352,2.352,0,0,0,.1.4.718.718,0,0,0,.331.39,1.065,1.065,0,0,0,.578.1l11.182-.637a1.54,1.54,0,0,0,.668-.19,1.2,1.2,0,0,0,.461-.423,1.324,1.324,0,0,0,.169-.65c.016-.291.026-.524.028-.7l.625-.036.416,3.547-.139.144-10.17.58q.8.719,1.727,1.552t1.639,1.4a1.752,1.752,0,0,0,.24.158.454.454,0,0,0,.234.079c.176-.01.3-.158.367-.446a4.9,4.9,0,0,0,.129-.824l.625-.036.24,4.23-.6.034a6.641,6.641,0,0,0-.693-1.413,6.057,6.057,0,0,0-.713-.923c-.137-.149-.362-.358-.67-.627s-.713-.649-1.217-1.136q-.941.856-2.259,1.935t-1.906,1.572a1.9,1.9,0,0,0-.865,1.82Zm.4,6.556c-.177-.422-.329-.821-.451-1.2a4.589,4.589,0,0,1-.189-1.386,2.071,2.071,0,0,1,.6-1.707,2.668,2.668,0,0,1,1.72-.5l6.524-.042-.011-1.738.937-.006.012,1.777,3-.018.011,1.777-3,.019.017,2.763-.937.006-.018-2.744-5.381.034a9.44,9.44,0,0,0-1.009.051,1.857,1.857,0,0,0-.707.214,1,1,0,0,0-.427.472,1.989,1.989,0,0,0-.142.839c0,.164.018.4.049.719a3.178,3.178,0,0,0,.116.668ZM304.212,187l.18-1.228,18.813,2.754-.18,1.228Zm1.954,33.854a3.406,3.406,0,0,1-1.352.583,3.075,3.075,0,0,1-1.651-.168,3.256,3.256,0,0,1-1.438-.963,3.606,3.606,0,0,1-.734-1.425,5,5,0,0,1-.143-1.624,6.213,6.213,0,0,1,.355-1.683l2.219-6.177.652.235c-.041.151-.091.376-.152.672a2.491,2.491,0,0,0-.076.658.879.879,0,0,0,.2.527,1.2,1.2,0,0,0,.514.32l9.374,3.367a1.457,1.457,0,0,0,.589.093.862.862,0,0,0,.537-.28,2.752,2.752,0,0,0,.432-.54,4.581,4.581,0,0,0,.3-.537l.653.234-2.162,6.02a6.726,6.726,0,0,1-.618,1.288,4.218,4.218,0,0,1-.925,1.043,2.794,2.794,0,0,1-1.193.578,2.616,2.616,0,0,1-1.468-.133,3.055,3.055,0,0,1-1.136-.689,2.852,2.852,0,0,1-.674-1.03,4.293,4.293,0,0,1-.272-1.193,6.129,6.129,0,0,1,.033-1.321l-.082-.029a7.385,7.385,0,0,1-.731,1.153,4.651,4.651,0,0,1-1.046,1.021m-1.856-1.737a2.672,2.672,0,0,0,2.181-.093,3.27,3.27,0,0,0,1.541-1.952q.211-.588.343-1t.2-.614l-4.6-1.65a1.023,1.023,0,0,0-1.041.155,2.6,2.6,0,0,0-.764,1.2,2.852,2.852,0,0,0,.048,2.383,3.592,3.592,0,0,0,2.092,1.57m4.624.221a2.413,2.413,0,0,0,.694.783,4.448,4.448,0,0,0,1.066.532,2.49,2.49,0,0,0,1.9.021,2.623,2.623,0,0,0,1.277-1.633c.069-.2.154-.443.251-.743l.245-.755-5.017-1.8-.418,1.165a4.038,4.038,0,0,0-.271,1.358,2.13,2.13,0,0,0,.271,1.075M297.675,229.9a4.929,4.929,0,0,1-1.019-2.226,4.082,4.082,0,0,1,.324-2.41,4.738,4.738,0,0,1,1.2-1.7,3.985,3.985,0,0,1,1.6-.863,4.746,4.746,0,0,1,1.842-.105,6.955,6.955,0,0,1,1.925.551,5.834,5.834,0,0,1,1.561,1.021,5.207,5.207,0,0,1,1.13,1.459,4.214,4.214,0,0,1,.46,1.717,4,4,0,0,1-.363,1.864,4.473,4.473,0,0,1-1.038,1.516,3.231,3.231,0,0,1-1.325.746,3.663,3.663,0,0,1-1.451.088,5.668,5.668,0,0,1-1.561-.456l-.589-.261,2.591-5.826a7.568,7.568,0,0,0-1.647-.536,4.157,4.157,0,0,0-1.475-.031,2.705,2.705,0,0,0-1.223.547,3.063,3.063,0,0,0-.9,1.205,2.69,2.69,0,0,0-.237,1.535,4.022,4.022,0,0,0,.847,1.707Zm4.232-.478a8.123,8.123,0,0,0,1.1.39,3.57,3.57,0,0,0,1.074.151,1.994,1.994,0,0,0,.917-.266,1.678,1.678,0,0,0,.667-.8,2.1,2.1,0,0,0-.086-1.9,3.976,3.976,0,0,0-1.867-1.637Zm-5.65,17.262a2.057,2.057,0,0,0,.127-.94,1.72,1.72,0,0,0-.463-1.042q-1.021-1.121-1.937-2.12t-2.058-2.244q-.36-.4-.785-.84c-.285-.295-.56-.57-.827-.829l.4-.73,7.47,1.151-4.96-5.705.386-.7q2.253.405,4.459.824t3.85.711a1.325,1.325,0,0,0,.921-.173,2.167,2.167,0,0,0,.684-.593l.565.311-2.073,3.761-.6-.33a3.11,3.11,0,0,0,.242-.663c.065-.251.03-.413-.1-.485a.855.855,0,0,0-.163-.05c-.085-.021-.177-.041-.279-.059q-1.047-.221-2.343-.483t-3.365-.691l4.878,5.492-.457.829-7.188-1.1q.941,1,1.811,1.953t1.658,1.746c.126.121.241.234.343.339a1.455,1.455,0,0,0,.332.256.405.405,0,0,0,.35.014,1.3,1.3,0,0,0,.381-.225,2.2,2.2,0,0,0,.307-.316,2.151,2.151,0,0,0,.2-.275l.548.3-1.766,3.206Zm-10.835,3.9a4.929,4.929,0,0,1-.629-2.367,4.066,4.066,0,0,1,.727-2.321,4.715,4.715,0,0,1,1.47-1.466,3.988,3.988,0,0,1,1.725-.582,4.741,4.741,0,0,1,1.834.208,6.962,6.962,0,0,1,1.8.868,5.871,5.871,0,0,1,1.365,1.269,5.237,5.237,0,0,1,.869,1.629,4.257,4.257,0,0,1,.163,1.771,3.982,3.982,0,0,1-.673,1.774,4.435,4.435,0,0,1-1.279,1.32,3.226,3.226,0,0,1-1.434.511,3.6,3.6,0,0,1-1.443-.159,5.644,5.644,0,0,1-1.463-.71l-.535-.358,3.537-5.305a7.554,7.554,0,0,0-1.533-.806,4.159,4.159,0,0,0-1.448-.28,2.738,2.738,0,0,0-1.3.332,3.089,3.089,0,0,0-1.086,1.037,2.688,2.688,0,0,0-.492,1.473,4.007,4.007,0,0,0,.546,1.826Zm4.252.242a7.928,7.928,0,0,0,1.023.571,3.573,3.573,0,0,0,1.032.33,1.972,1.972,0,0,0,.949-.107,1.678,1.678,0,0,0,.793-.68,2.092,2.092,0,0,0,.236-1.89,3.964,3.964,0,0,0-1.562-1.929Zm-10.793,6.315a2.864,2.864,0,0,1-1.041-.017,2.672,2.672,0,0,1-1.061-.522,2.9,2.9,0,0,1-.857-1.028,2.929,2.929,0,0,1-.291-1.372,5.066,5.066,0,0,1,.375-1.677,8.468,8.468,0,0,1,1.154-1.943,6.594,6.594,0,0,1,2.485-2.223,2.044,2.044,0,0,1,2.144.266,1.851,1.851,0,0,1,.783,1.572,3.523,3.523,0,0,1-.7,1.965l.11.082a5.682,5.682,0,0,1,.541-.349,2.3,2.3,0,0,1,.568-.243,1.674,1.674,0,0,1,.633-.035,1.4,1.4,0,0,1,.643.291,1.444,1.444,0,0,1,.538.867,2.869,2.869,0,0,1-.073,1.334l.116.089a3.79,3.79,0,0,1,1.778-.479,2.582,2.582,0,0,1,1.586.551,2.833,2.833,0,0,1,1.174,2.17,3.86,3.86,0,0,1-.876,2.613,4.275,4.275,0,0,1-.6.643c-.223.2-.459.386-.713.57l-2.028,2.677-.747-.566,1.367-1.806-.047-.035a2.817,2.817,0,0,1-1.064-.132,3.04,3.04,0,0,1-.9-.461,2.719,2.719,0,0,1-1.092-2.119,3.579,3.579,0,0,1,.747-2.441l.714-.941a1.526,1.526,0,0,0,.057-.545.7.7,0,0,0-.3-.532.724.724,0,0,0-.564-.17,1.1,1.1,0,0,0-.506.242,3.083,3.083,0,0,0-.476.466q-.241.29-.492.6c-.179.225-.431.525-.757.9s-.555.648-.687.81a2.547,2.547,0,0,1-.716.59,2.9,2.9,0,0,1-.927.334m-1.424-2.033a1.505,1.505,0,0,0,.869.339,1.3,1.3,0,0,0,.848-.326c.131-.13.381-.41.748-.843s.777-.946,1.23-1.544a2.7,2.7,0,0,0,.356-1.609,1.761,1.761,0,0,0-.725-1.106,1.518,1.518,0,0,0-.609-.279,1.552,1.552,0,0,0-.766.057,2.825,2.825,0,0,0-.886.481,5.3,5.3,0,0,0-.977,1.025,4.014,4.014,0,0,0-.925,2.135,1.883,1.883,0,0,0,.837,1.67m7.57,3.38a3.185,3.185,0,0,0,1.733.729,1.489,1.489,0,0,0,1.328-.629,1.541,1.541,0,0,0,.322-.742,1.467,1.467,0,0,0-.11-.752,2.276,2.276,0,0,0-.451-.69,5.163,5.163,0,0,0-.694-.629,3.036,3.036,0,0,0-1.7-.69,1.434,1.434,0,0,0-1.284.565,1.465,1.465,0,0,0-.24,1.441,3.016,3.016,0,0,0,1.091,1.4M273.168,262.9c.141-.435.289-.837.442-1.2a4.674,4.674,0,0,1,.765-1.172,2.077,2.077,0,0,1,1.572-.9,2.662,2.662,0,0,1,1.63.746l4.956,4.241,1.131-1.32.712.609-1.155,1.351,2.277,1.949-1.156,1.35-2.278-1.949-1.8,2.1-.713-.61,1.785-2.084-4.089-3.5a9.69,9.69,0,0,0-.8-.625,1.9,1.9,0,0,0-.675-.3.994.994,0,0,0-.631.077,2,2,0,0,0-.657.543c-.105.123-.251.314-.433.574a3.01,3.01,0,0,0-.35.58Zm-16.156,9.3.942-.807,12.363,14.446-.942.806Zm-20.043,25.6q.188-.146.493-.4a2.419,2.419,0,0,0,.456-.484.867.867,0,0,0,.143-.57,1.535,1.535,0,0,0-.219-.6l-.553-.922q-.6-1-.826-1.35t-.375-.56a14.652,14.652,0,0,1,1.758-2.1,10.7,10.7,0,0,1,2.008-1.568,6.755,6.755,0,0,1,2.451-.888,6.364,6.364,0,0,1,2.57.111,6.8,6.8,0,0,1,2.426,1.178,7.737,7.737,0,0,1,2,2.267,8.1,8.1,0,0,1,1.062,2.787,7,7,0,0,1-.06,2.777,6.507,6.507,0,0,1-1.116,2.441A7,7,0,0,1,247.1,301.8a6.626,6.626,0,0,1-1.9.806,7.477,7.477,0,0,1-1.666.2l0,.776-.67.4-2.566-4.109.687-.412a13.8,13.8,0,0,0,1.246,1.091,5.556,5.556,0,0,0,1.387.792,3.619,3.619,0,0,0,1.507.241,3.46,3.46,0,0,0,1.6-.533,4.006,4.006,0,0,0,1.383-1.325,4.068,4.068,0,0,0,.574-1.818,5.984,5.984,0,0,0-.252-2.209,10.48,10.48,0,0,0-1.116-2.487,9.382,9.382,0,0,0-1.55-1.97,6.29,6.29,0,0,0-1.831-1.257,4.425,4.425,0,0,0-2-.393,4.218,4.218,0,0,0-2.026.632,4.472,4.472,0,0,0-1.211,1.034,2.847,2.847,0,0,0-.573.993,7.11,7.11,0,0,0,.456.922c.174.3.324.549.447.756l.393.653a2.173,2.173,0,0,0,.47.566.773.773,0,0,0,.635.16,3.2,3.2,0,0,0,.864-.261q.51-.22.789-.365l.366.612-5.21,3.123Zm-10.384,1.4a4.93,4.93,0,0,1,.648-2.362,4.082,4.082,0,0,1,1.8-1.64,4.742,4.742,0,0,1,2.01-.527,4.006,4.006,0,0,1,1.783.367,4.777,4.777,0,0,1,1.48,1.1,6.989,6.989,0,0,1,1.122,1.659,5.854,5.854,0,0,1,.541,1.785,5.2,5.2,0,0,1-.07,1.844,4.24,4.24,0,0,1-.75,1.612,3.98,3.98,0,0,1-1.475,1.2,4.44,4.44,0,0,1-1.77.5,3.217,3.217,0,0,1-1.495-.279,3.645,3.645,0,0,1-1.168-.864,5.688,5.688,0,0,1-.9-1.35l-.283-.58,5.727-2.8a7.578,7.578,0,0,0-.92-1.468,4.122,4.122,0,0,0-1.11-.97,2.711,2.711,0,0,0-1.289-.367,3.072,3.072,0,0,0-1.459.349,2.709,2.709,0,0,0-1.168,1.024,4.034,4.034,0,0,0-.446,1.854Zm3.552,2.348a7.838,7.838,0,0,0,.6,1.009,3.593,3.593,0,0,0,.726.8,1.993,1.993,0,0,0,.873.386,1.685,1.685,0,0,0,1.028-.189,2.1,2.1,0,0,0,1.157-1.513,3.983,3.983,0,0,0-.381-2.456Zm-8.719,6.447a1.611,1.611,0,0,1-.114-.91.829.829,0,0,1,.546-.645,1.141,1.141,0,0,1,.88-.059.858.858,0,0,1,.505.467,1.972,1.972,0,0,1,.119.373c.024.117.049.234.077.35a2.166,2.166,0,0,0,.848-.756,3.165,3.165,0,0,0,.561-1.375l-2.152-5.176a1.06,1.06,0,0,0-.335-.463.8.8,0,0,0-.507-.138,2.57,2.57,0,0,0-.638.107c-.251.068-.465.132-.644.193l-.248-.6,4.69-1.949.247.594c-.134.07-.272.142-.413.214a1.711,1.711,0,0,0-.354.233.7.7,0,0,0-.256.438,1.1,1.1,0,0,0,.1.578l2.28,5.486a1.37,1.37,0,0,0,.36.494,1.187,1.187,0,0,0,.545.28,1.362,1.362,0,0,0,.47-.011,3.729,3.729,0,0,0,.534-.142l.248.6-2.875,1.428-.18-.073-.52-1.254-.045.018a4.369,4.369,0,0,1-.785,1.627,2.843,2.843,0,0,1-1.095.9,1.329,1.329,0,0,1-1.078.013,1.476,1.476,0,0,1-.768-.843m-12.312-4.36q.378-.308.673-.517a2.785,2.785,0,0,1,.71-.354,1.92,1.92,0,0,1,1.266-.059,1.647,1.647,0,0,1,.889.794l.054-.02a4.76,4.76,0,0,1,.938-1.46,3.839,3.839,0,0,1,1.536-.923,2.482,2.482,0,0,1,1.9.047,2.287,2.287,0,0,1,1.227,1.414,2.964,2.964,0,0,1,.178.992,2.4,2.4,0,0,1-.185.9,2.369,2.369,0,0,1-.438.7,5.6,5.6,0,0,1-.592.592q-.361.3-1.484,1.164a13.285,13.285,0,0,0-1.483,1.255l.315.914a4.358,4.358,0,0,0,.211.443,2.007,2.007,0,0,0,.44.571,1.915,1.915,0,0,0,.727.416,1.652,1.652,0,0,0,1.043-.076,2.242,2.242,0,0,0,.74-.416,1.53,1.53,0,0,0,.409-.476,2.636,2.636,0,0,0-.277-.515,3.041,3.041,0,0,1-.316-.634.84.84,0,0,1,.086-.691,1.215,1.215,0,0,1,.716-.547.8.8,0,0,1,.792.094,1.367,1.367,0,0,1,.469.659,1.388,1.388,0,0,1-.018.916,3.2,3.2,0,0,1-.542.961,4.461,4.461,0,0,1-.855.786,4.152,4.152,0,0,1-1.091.578,7.889,7.889,0,0,1-1.389.361,2.65,2.65,0,0,1-1.206-.1,2.242,2.242,0,0,1-1.035-.681,4.19,4.19,0,0,1-.766-1.425q-.456-1.319-.78-2.348t-.742-2.24a1.183,1.183,0,0,0-.323-.529,1.07,1.07,0,0,0-.507-.229,1,1,0,0,0-.47.061q-.3.093-.617.2Zm4.9,3.762q.705-.5,1.219-.929a5.916,5.916,0,0,0,.907-.933,2.684,2.684,0,0,0,.471-1,2,2,0,0,0-.084-1.116,1.529,1.529,0,0,0-.792-.989,1.557,1.557,0,0,0-1.145-.009,2.211,2.211,0,0,0-1.043.718,3.556,3.556,0,0,0-.58,1.043Zm-15.442-.838,3.19-1.107.178.093.24.866.08,0a4,4,0,0,1,.96-1.23,3.486,3.486,0,0,1,1.384-.758,3.642,3.642,0,0,1,1.625-.071,4.017,4.017,0,0,1,1.557.638,5.043,5.043,0,0,1,1.312,1.318,6.22,6.22,0,0,1,.883,1.924,5.47,5.47,0,0,1,.182,2.007,5.238,5.238,0,0,1-.52,1.847,4.4,4.4,0,0,1-1.126,1.4,4.228,4.228,0,0,1-1.591.847,5.18,5.18,0,0,1-1.319.188,4.769,4.769,0,0,1-1.193-.12l.9,3.234a1.939,1.939,0,0,0,.332.684,1.142,1.142,0,0,0,.5.394,1.926,1.926,0,0,0,.783.063,9.836,9.836,0,0,0,1-.15l.161.584-3.743,1.26-.181-.1-3.469-12.507a1.176,1.176,0,0,0-.282-.524,1.125,1.125,0,0,0-.479-.287,1.21,1.21,0,0,0-.558,0c-.23.043-.44.089-.632.134Zm3.859.684,1.506,5.429a2.468,2.468,0,0,0,.389.459,2.428,2.428,0,0,0,.567.4,2.482,2.482,0,0,0,.748.214,2.27,2.27,0,0,0,.9-.081,2.013,2.013,0,0,0,.958-.58,2.883,2.883,0,0,0,.608-1.071,4.463,4.463,0,0,0,.177-1.494,7.75,7.75,0,0,0-.3-1.857,6.536,6.536,0,0,0-.548-1.393,3.95,3.95,0,0,0-.84-1.06,2.705,2.705,0,0,0-1.075-.614,2.326,2.326,0,0,0-1.306.018,2.264,2.264,0,0,0-1.152.674,4.118,4.118,0,0,0-.631.955m-12.238,3.021a4.958,4.958,0,0,1,1.234-2.117,4.089,4.089,0,0,1,2.156-1.123,4.754,4.754,0,0,1,2.077.007,3.992,3.992,0,0,1,1.63.811,4.756,4.756,0,0,1,1.148,1.446,6.979,6.979,0,0,1,.658,1.89,5.852,5.852,0,0,1,.065,1.864,5.2,5.2,0,0,1-.541,1.765,4.208,4.208,0,0,1-1.138,1.365,3.987,3.987,0,0,1-1.733.776,4.427,4.427,0,0,1-1.837.025,3.232,3.232,0,0,1-1.374-.652,3.629,3.629,0,0,1-.906-1.135,5.642,5.642,0,0,1-.528-1.539l-.126-.631,6.256-1.24a7.586,7.586,0,0,0-.513-1.654,4.118,4.118,0,0,0-.824-1.224,2.722,2.722,0,0,0-1.152-.685,3.084,3.084,0,0,0-1.5-.037,2.688,2.688,0,0,0-1.39.691,4.028,4.028,0,0,0-.909,1.676Zm2.832,3.182a7.789,7.789,0,0,0,.317,1.128,3.643,3.643,0,0,0,.495.965,1.993,1.993,0,0,0,.745.6,1.668,1.668,0,0,0,1.042.081,2.092,2.092,0,0,0,1.506-1.166,3.968,3.968,0,0,0,.263-2.469Zm-13.243-3.91q.434-.225.764-.373a2.8,2.8,0,0,1,.766-.2,1.913,1.913,0,0,1,1.252.192,1.643,1.643,0,0,1,.713.954l.058-.008a4.8,4.8,0,0,1,1.209-1.246,3.838,3.838,0,0,1,1.689-.6,2.477,2.477,0,0,1,1.853.422,2.284,2.284,0,0,1,.922,1.63,2.926,2.926,0,0,1-.023,1.008,2.393,2.393,0,0,1-.359.847,2.342,2.342,0,0,1-.57.6,5.549,5.549,0,0,1-.7.463q-.416.222-1.686.845a13.5,13.5,0,0,0-1.7.937l.128.958a4.084,4.084,0,0,0,.118.478,2.039,2.039,0,0,0,.318.646,1.906,1.906,0,0,0,.63.551,1.638,1.638,0,0,0,1.037.133,2.271,2.271,0,0,0,.808-.26,1.508,1.508,0,0,0,.5-.386,2.583,2.583,0,0,0-.168-.559,3.028,3.028,0,0,1-.185-.686.842.842,0,0,1,.222-.66,1.219,1.219,0,0,1,.81-.392.8.8,0,0,1,.758.248,1.367,1.367,0,0,1,.128,1.633,3.179,3.179,0,0,1-.72.835,4.509,4.509,0,0,1-.994.6,4.157,4.157,0,0,1-1.185.351,8.065,8.065,0,0,1-1.433.078,2.658,2.658,0,0,1-1.163-.332,2.272,2.272,0,0,1-.88-.874,4.194,4.194,0,0,1-.467-1.547c-.123-.924-.223-1.742-.3-2.459s-.17-1.5-.283-2.342a1.211,1.211,0,0,0-.21-.582,1.084,1.084,0,0,0-.452-.324,1,1,0,0,0-.474-.035c-.21.021-.425.047-.645.076Zm4.062,4.66c.526-.234.986-.459,1.379-.668a5.974,5.974,0,0,0,1.074-.735,2.68,2.68,0,0,0,.66-.884,2.01,2.01,0,0,0,.138-1.11,1.533,1.533,0,0,0-.579-1.127,1.564,1.564,0,0,0-1.12-.236,2.22,2.22,0,0,0-1.165.5,3.482,3.482,0,0,0-.776.909Zm-14.572-4.085,3.127-.394.154.129.069,1.219.059,0c.145-.172.311-.355.495-.552a3.748,3.748,0,0,1,.644-.541,4.368,4.368,0,0,1,.824-.447,3.824,3.824,0,0,1,1.15-.2,2.344,2.344,0,0,1,1.989.723,3.8,3.8,0,0,1,.8,2.381l.263,4.6a1.178,1.178,0,0,0,.166.582,1.212,1.212,0,0,0,.411.392,1.241,1.241,0,0,0,.451.145,4.055,4.055,0,0,0,.564.041l.037.644-3.195.417-.154-.128-.381-6.679a2.3,2.3,0,0,0-.557-1.543,1.455,1.455,0,0,0-1.152-.463,2.589,2.589,0,0,0-.946.221,2.776,2.776,0,0,0-.68.43,3.252,3.252,0,0,0-.438.46,2.44,2.44,0,0,0-.284.44l.311,5.443a1.161,1.161,0,0,0,.17.563,1.256,1.256,0,0,0,.4.4,1.077,1.077,0,0,0,.53.113q.347,0,.777,0l.037.643-3.486.434-.155-.128-.435-7.625a1.121,1.121,0,0,0-.168-.559,1.259,1.259,0,0,0-.4-.377,1.1,1.1,0,0,0-.428-.118c-.163-.013-.343-.017-.538-.013Zm-7.407,4.445a2.472,2.472,0,0,1-.61-.814,2.637,2.637,0,0,1-.208-1.124,2.736,2.736,0,0,1,1.016-2.181,4.271,4.271,0,0,1,4.142-.521,4.3,4.3,0,0,1,1.008.563l.2-.634.733.005.076,3.351-.674-.005a3.733,3.733,0,0,0-.326-.894,4.265,4.265,0,0,0-.61-.924,3.352,3.352,0,0,0-.908-.732,2.437,2.437,0,0,0-1.2-.3,2.179,2.179,0,0,0-1.447.419,1.514,1.514,0,0,0-.516,1.22,1.467,1.467,0,0,0,.157.709,1.572,1.572,0,0,0,.47.525,3.787,3.787,0,0,0,.789.411q.467.183,1.042.363a9.892,9.892,0,0,1,1.019.382,4.069,4.069,0,0,1,.958.568,2.758,2.758,0,0,1,.7.844,2.4,2.4,0,0,1,.265,1.174,2.631,2.631,0,0,1-.891,2,3.313,3.313,0,0,1-2.359.8,4.739,4.739,0,0,1-1.156-.154,4,4,0,0,1-.959-.357l-.228.506-.7,0-.127-3.1.673.005a3.109,3.109,0,0,0,.874,1.7,2.3,2.3,0,0,0,1.65.663,1.846,1.846,0,0,0,1.263-.395,1.253,1.253,0,0,0,.465-.971,1.566,1.566,0,0,0-.147-.733,1.356,1.356,0,0,0-.45-.5,3.848,3.848,0,0,0-.737-.371c-.294-.116-.66-.247-1.1-.393a9.536,9.536,0,0,1-1.212-.485,3.994,3.994,0,0,1-.939-.613m-10.06-4.349a2.885,2.885,0,0,1-.555-.881,2.663,2.663,0,0,1-.143-1.175,2.853,2.853,0,0,1,1.381-2.272,5.074,5.074,0,0,1,1.61-.6,8.544,8.544,0,0,1,2.258-.1,6.586,6.586,0,0,1,3.218.866,2.047,2.047,0,0,1,.952,1.941,1.85,1.85,0,0,1-.889,1.515,3.529,3.529,0,0,1-2.03.484l-.01.137a6.25,6.25,0,0,1,.589.26,2.342,2.342,0,0,1,.513.345,1.627,1.627,0,0,1,.376.511,1.4,1.4,0,0,1,.109.7,1.449,1.449,0,0,1-.432.924,2.884,2.884,0,0,1-1.158.668l-.01.146a3.771,3.771,0,0,1,1.373,1.226,2.581,2.581,0,0,1,.4,1.629,2.832,2.832,0,0,1-1.174,2.17,3.859,3.859,0,0,1-2.666.7,4.274,4.274,0,0,1-.867-.148c-.285-.078-.573-.174-.866-.286l-3.351-.234.065-.934,2.261.157,0-.059a2.8,2.8,0,0,1-.471-.963,3,3,0,0,1-.107-1,2.719,2.719,0,0,1,1.177-2.072,3.583,3.583,0,0,1,2.453-.71l1.179.082a1.506,1.506,0,0,0,.487-.25.689.689,0,0,0,.283-.538.715.715,0,0,0-.167-.564,1.066,1.066,0,0,0-.479-.294,3.077,3.077,0,0,0-.65-.143c-.249-.03-.507-.057-.773-.083-.286-.026-.674-.073-1.171-.14s-.843-.111-1.051-.132a2.55,2.55,0,0,1-.887-.278,2.928,2.928,0,0,1-.786-.592m.925-2.3a1.493,1.493,0,0,0,.19.913,1.281,1.281,0,0,0,.736.531c.181.039.552.1,1.116.166s1.216.134,1.963.187a2.7,2.7,0,0,0,1.544-.583,1.767,1.767,0,0,0,.53-1.211,1.535,1.535,0,0,0-.1-.663,1.564,1.564,0,0,0-.466-.611,2.8,2.8,0,0,0-.887-.477,5.269,5.269,0,0,0-1.392-.259,4.029,4.029,0,0,0-2.294.394,1.874,1.874,0,0,0-.939,1.613m1.308,8.187a3.186,3.186,0,0,0,.336,1.849,1.488,1.488,0,0,0,1.253.768,1.569,1.569,0,0,0,.8-.135,1.463,1.463,0,0,0,.568-.5,2.273,2.273,0,0,0,.332-.756,5.16,5.16,0,0,0,.147-.925,3.031,3.031,0,0,0-.35-1.8,1.434,1.434,0,0,0-1.174-.767,1.468,1.468,0,0,0-1.339.588,3.017,3.017,0,0,0-.572,1.678M141.909,310.2a4.943,4.943,0,0,1,1.851-1.606,4.073,4.073,0,0,1,2.4-.367,4.734,4.734,0,0,1,1.964.675,4,4,0,0,1,1.281,1.294,4.713,4.713,0,0,1,.619,1.738,6.911,6.911,0,0,1,.014,2,5.848,5.848,0,0,1-.538,1.786,5.222,5.222,0,0,1-1.082,1.495,4.219,4.219,0,0,1-1.518.926,3.987,3.987,0,0,1-1.89.175,4.425,4.425,0,0,1-1.747-.568,3.217,3.217,0,0,1-1.09-1.062,3.632,3.632,0,0,1-.492-1.366,5.632,5.632,0,0,1,0-1.626l.085-.638,6.32.843a7.578,7.578,0,0,0,.05-1.731,4.15,4.15,0,0,0-.387-1.424,2.7,2.7,0,0,0-.869-1.019,3.06,3.06,0,0,0-1.408-.52,2.712,2.712,0,0,0-1.54.205,4.047,4.047,0,0,0-1.4,1.294Zm1.654,3.925a8.151,8.151,0,0,0-.063,1.17,3.578,3.578,0,0,0,.158,1.072,1.993,1.993,0,0,0,.512.806,1.682,1.682,0,0,0,.961.413,2.1,2.1,0,0,0,1.8-.618,3.974,3.974,0,0,0,1.044-2.253Zm-12.6-8.332,3.341.486.116.164-.186.879.073.035a4.019,4.019,0,0,1,1.417-.649,3.466,3.466,0,0,1,1.577-.036,3.628,3.628,0,0,1,1.475.685,3.981,3.981,0,0,1,1.089,1.284,5.048,5.048,0,0,1,.558,1.774,6.19,6.19,0,0,1-.1,2.114,5.444,5.444,0,0,1-.762,1.866,5.23,5.23,0,0,1-1.312,1.4,4.382,4.382,0,0,1-1.642.722,4.237,4.237,0,0,1-1.8.017,5.1,5.1,0,0,1-1.258-.439,4.731,4.731,0,0,1-1-.656l-.693,3.285a1.954,1.954,0,0,0-.021.759,1.136,1.136,0,0,0,.266.581,1.911,1.911,0,0,0,.666.417,9.56,9.56,0,0,0,.954.326l-.125.592-3.9-.605-.115-.174,2.682-12.7a1.187,1.187,0,0,0-.009-.6,1.105,1.105,0,0,0-.294-.475,1.187,1.187,0,0,0-.495-.255c-.225-.068-.432-.124-.623-.171Zm3.11,2.384-1.164,5.512a2.564,2.564,0,0,0,.136.587,2.169,2.169,0,0,0,.883,1.15,2.267,2.267,0,0,0,.834.342,2.017,2.017,0,0,0,1.116-.075,2.869,2.869,0,0,0,1.033-.67,4.432,4.432,0,0,0,.846-1.244,7.734,7.734,0,0,0,.591-1.786,6.541,6.541,0,0,0,.155-1.489,3.955,3.955,0,0,0-.257-1.327,2.711,2.711,0,0,0-.673-1.04,2.324,2.324,0,0,0-1.167-.586,2.273,2.273,0,0,0-1.333.067,4.168,4.168,0,0,0-1,.559m-12.637-5.177c.324-.02.607-.031.847-.033a2.806,2.806,0,0,1,.784.121,1.909,1.909,0,0,1,1.068.683,1.643,1.643,0,0,1,.268,1.16l.056.016a4.793,4.793,0,0,1,1.608-.651,3.82,3.82,0,0,1,1.787.133,2.482,2.482,0,0,1,1.526,1.135,2.291,2.291,0,0,1,.185,1.864,2.987,2.987,0,0,1-.428.914,2.4,2.4,0,0,1-.671.629,2.321,2.321,0,0,1-.765.32,5.536,5.536,0,0,1-.824.143q-.466.036-1.883.092a13.394,13.394,0,0,0-1.935.17l-.27.929a3.889,3.889,0,0,0-.086.484,2.05,2.05,0,0,0,.03.72,1.927,1.927,0,0,0,.354.759,1.663,1.663,0,0,0,.9.54,2.273,2.273,0,0,0,.843.087,1.521,1.521,0,0,0,.61-.152,2.733,2.733,0,0,0,.072-.58,3.084,3.084,0,0,1,.106-.7.844.844,0,0,1,.47-.513,1.214,1.214,0,0,1,.9-.034.8.8,0,0,1,.592.534,1.367,1.367,0,0,1-.541,1.546,3.15,3.15,0,0,1-1,.473,4.531,4.531,0,0,1-1.152.149,4.186,4.186,0,0,1-1.225-.159,8.037,8.037,0,0,1-1.343-.507,2.635,2.635,0,0,1-.929-.774,2.247,2.247,0,0,1-.452-1.154,4.172,4.172,0,0,1,.2-1.606q.39-1.339.719-2.368t.686-2.257a1.182,1.182,0,0,0,.042-.617,1.076,1.076,0,0,0-.282-.48,1.019,1.019,0,0,0-.418-.223c-.2-.064-.408-.129-.621-.19Zm1.833,5.9q.866,0,1.531-.052a6.039,6.039,0,0,0,1.279-.24,2.667,2.667,0,0,0,.961-.542,2,2,0,0,0,.574-.96,1.522,1.522,0,0,0-.075-1.264,1.554,1.554,0,0,0-.93-.668,2.2,2.2,0,0,0-1.265-.016,3.5,3.5,0,0,0-1.076.517Zm-6.238-7.97a4.062,4.062,0,0,1,2.611,2.411,6.247,6.247,0,0,1-1.086,5.581,5.258,5.258,0,0,1-1.411,1.2,4.33,4.33,0,0,1-1.74.565,4.259,4.259,0,0,1-1.925-.241,3.7,3.7,0,0,1-1.94-1.418,2.2,2.2,0,0,1-.211-2.042,1.6,1.6,0,0,1,.512-.734.837.837,0,0,1,.853-.093,1.273,1.273,0,0,1,.743.576.876.876,0,0,1,.078.722,3.726,3.726,0,0,1-.414.808,4.938,4.938,0,0,0-.358.59.858.858,0,0,0,.355.556,2.565,2.565,0,0,0,.666.349,2.053,2.053,0,0,0,.906.112,2.293,2.293,0,0,0,1.024-.415,3.97,3.97,0,0,0,1-1.044,7.644,7.644,0,0,0,.88-1.789,5.036,5.036,0,0,0,.246-3.062,2.47,2.47,0,0,0-1.6-1.793,2.636,2.636,0,0,0-1.648-.1,4.52,4.52,0,0,0-1.582.9l-.449-.6a5.034,5.034,0,0,1,2.216-1.145,3.985,3.985,0,0,1,2.277.1m-13.719-5.475,4.327,1.925-.262.589q-.213-.074-.471-.167a1.89,1.89,0,0,0-.442-.112.7.7,0,0,0-.495.117,1.1,1.1,0,0,0-.353.468L103.6,302.8a2.34,2.34,0,0,0-.2,1.641,1.513,1.513,0,0,0,.852.989,2.709,2.709,0,0,0,.929.236,3.552,3.552,0,0,0,.872-.045,2.319,2.319,0,0,0,.663-.239c.174-.1.312-.19.417-.263l2.25-5.06a1.02,1.02,0,0,0,.1-.553.85.85,0,0,0-.235-.468,2.065,2.065,0,0,0-.347-.314,3.638,3.638,0,0,0-.431-.267l.262-.589,4.309,1.917-.262.589q-.21-.074-.443-.149a2.24,2.24,0,0,0-.4-.1.719.719,0,0,0-.5.115,1.087,1.087,0,0,0-.357.468l-4.559,10.251a1.575,1.575,0,0,0-.131.668,1.173,1.173,0,0,0,.158.616,1.407,1.407,0,0,0,.493.418c.257.153.465.273.626.358l-.254.572-3.344-1.252-.065-.19,2.73-6.139-.036-.016c-.283.108-.539.2-.768.283a4.75,4.75,0,0,1-.846.2,3.7,3.7,0,0,1-.959,0,3.777,3.777,0,0,1-1.1-.317,2.46,2.46,0,0,1-1.483-1.553,3.521,3.521,0,0,1,.32-2.427L103.9,297.6a1.093,1.093,0,0,0,.112-.554.8.8,0,0,0-.24-.465,3.191,3.191,0,0,0-.319-.286,3.042,3.042,0,0,0-.41-.252Zm-5.85-2.623q.686.059,1.271.16a4.617,4.617,0,0,1,1.314.48,2.075,2.075,0,0,1,1.23,1.327,2.679,2.679,0,0,1-.357,1.757l-3.009,5.788,1.542.8-.432.833-1.578-.821-1.382,2.66-1.578-.819,1.383-2.66-2.452-1.276.433-.832,2.435,1.266,2.482-4.773a9.672,9.672,0,0,0,.427-.917,1.874,1.874,0,0,0,.14-.725,1,1,0,0,0-.218-.6,1.987,1.987,0,0,0-.677-.517c-.144-.075-.364-.173-.657-.292a3.1,3.1,0,0,0-.646-.209Z"
        transform="translate(16 15)" />
    </g>
  </g>
</svg>